<?xml version="1.0" encoding="UTF-8"?>
<svg version="1.1" xmlns="http://www.w3.org/2000/svg" width="1000" height="1000">
<path d="M0 0 C330 0 660 0 1000 0 C1000 330 1000 660 1000 1000 C670 1000 340 1000 0 1000 C0 670 0 340 0 0 Z " fill="#FEFEFE" transform="translate(0,0)"/>
<path d="M0 0 C1.13824219 0.50273437 2.27648437 1.00546875 3.44921875 1.5234375 C12.26611977 5.65545052 19.57937909 10.75944577 27 17 C27.94746094 17.78246094 28.89492188 18.56492187 29.87109375 19.37109375 C52.05438156 38.53367854 65.95797656 66.73852684 68.22753906 95.92626953 C68.94173664 109.79472878 67.59508157 122.6195659 64 136 C63.72285156 137.14339844 63.44570313 138.28679687 63.16015625 139.46484375 C55.88878901 166.57330505 35.15687892 190.020448 11.4375 204.08984375 C-13.76470461 218.09425063 -45.04244755 224.43575606 -73.5625 217.375 C-76.06118428 216.64727729 -78.54302806 215.8580748 -81 215 C-81.63067383 214.78569336 -82.26134766 214.57138672 -82.91113281 214.35058594 C-112.38699701 204.15938377 -135.50264697 183.44934647 -149.8125 155.9375 C-162.68146756 128.958088 -165.89718485 97.51802084 -155.99951172 68.99682617 C-149.19452083 50.29972581 -139.29227987 33.00905753 -124 20 C-123.34 20 -122.68 20 -122 20 C-122 19.34 -122 18.68 -122 18 C-88.45088073 -10.56802733 -40.47896875 -18.22826517 0 0 Z " fill="#1F3C87" transform="translate(370,395)"/>
<path d="M0 0 C3.57520867 2.78796076 6.81579537 5.77634505 10 9 C10.63550781 9.61359375 11.27101563 10.2271875 11.92578125 10.859375 C22.80125433 22.1447883 27.53550756 37.66474524 27.41992188 53.02319336 C26.79740059 72.17968977 18.81715381 87.93231628 5 101 C-7.28297107 111.70515853 -21.90003592 115.17214085 -37.8125 115.25 C-39.37581055 115.2809375 -39.37581055 115.2809375 -40.97070312 115.3125 C-50.37536598 115.35972995 -56.62683388 113.18658306 -65 109 C-65 95.8 -65 82.6 -65 69 C-63.35 70.65 -61.7 72.3 -60 74 C-51.36799602 81.21828464 -43.35952113 84.97522121 -32 84 C-22.78654808 82.2932695 -14.97625477 78.28636885 -9.5625 70.5 C-3.99750772 61.74821727 -3.81510549 51.51997409 -5.39453125 41.49609375 C-7.48887948 34.80769135 -12.75986896 29.07309296 -18.5703125 25.35546875 C-27.44876735 20.75722422 -37.09810155 19.22555108 -46.8125 22.25 C-54.87449645 25.35737696 -60.82888378 30.57233645 -65.1831665 38.02510071 C-69.54139386 48.17219092 -68.60524551 59.34225988 -68.609375 70.16796875 C-68.62437254 72.41670412 -68.64110297 74.66542854 -68.65948486 76.91413879 C-68.70299352 82.80112238 -68.72312094 88.6879574 -68.73822021 94.57507324 C-68.75785083 100.59505945 -68.79981408 106.61488661 -68.83984375 112.63476562 C-68.91496746 124.42315476 -68.96330012 136.21142856 -69 148 C-78.9 148 -88.8 148 -99 148 C-99.09056406 133.86503988 -99.16386792 119.73027419 -99.20724869 105.59508896 C-99.22807494 99.03073042 -99.25630222 92.46658161 -99.30175781 85.90234375 C-99.34539201 79.56105757 -99.36917439 73.21997246 -99.37950897 66.87854767 C-99.3868688 64.46577034 -99.40124047 62.05300334 -99.42292023 59.64031219 C-99.60771556 38.21211225 -96.76613358 23.64659297 -81.65234375 7.421875 C-58.55515067 -13.66834548 -26.36820312 -17.41878697 0 0 Z " fill="#FBFDFC" transform="translate(372,438)"/>
<path d="M0 0 C69.21067881 0 69.21067881 0 83.17578125 12.83203125 C90.67994406 21.75025471 92.72199724 31.74412844 92.17919922 43.04296875 C91.30514978 52.58844601 86.91254171 60.83752758 79.671875 66.97265625 C74.4884422 70.84433075 70.27763683 72.62718345 64 74 C65.27036526 76.15149958 66.54093881 78.30287571 67.81176758 80.45410156 C68.95014753 82.3815278 70.08799399 84.30926921 71.2253418 86.23730469 C74.23874733 91.34208248 77.26016728 96.44176847 80.30435181 101.52824402 C81.78103231 103.99602882 83.25457887 106.46567873 84.72802734 108.93539429 C85.45123004 110.1455011 86.17600436 111.35467004 86.90234375 112.56289673 C87.92449965 114.26353552 88.94089798 115.96763085 89.95703125 117.671875 C90.83838745 119.14285645 90.83838745 119.14285645 91.73754883 120.64355469 C93 123 93 123 93 125 C83.43 125 73.86 125 64 125 C62.4325 122.133125 60.865 119.26625 59.25 116.3125 C54.10996392 106.94391504 48.84762473 97.64836733 43.53125 88.37890625 C43.09039062 87.60949707 42.64953125 86.84008789 42.1953125 86.04736328 C41.21804115 84.37346672 40.1936004 82.72718707 39.15625 81.08984375 C38 79 38 79 38 76 C33.71 76 29.42 76 25 76 C25 92.17 25 108.34 25 125 C16.75 125 8.5 125 0 125 C0 83.75 0 42.5 0 0 Z " fill="#1F3C87" transform="translate(449,439)"/>
<path d="M0 0 C8.25 0 16.5 0 25 0 C25 16.83 25 33.66 25 51 C42.49 51 59.98 51 78 51 C78 34.17 78 17.34 78 0 C86.58 0 95.16 0 104 0 C104 41.25 104 82.5 104 125 C95.42 125 86.84 125 78 125 C78 107.51 78 90.02 78 72 C60.51 72 43.02 72 25 72 C25 89.49 25 106.98 25 125 C16.75 125 8.5 125 0 125 C0 83.75 0 42.5 0 0 Z " fill="#254089" transform="translate(690,439)"/>
<path d="M0 0 C8.25 0 16.5 0 25 0 C25.0093457 2.45671143 25.01869141 4.91342285 25.02832031 7.44458008 C25.0622077 15.59508185 25.11782156 23.74533356 25.18390274 31.89563465 C25.22327849 36.83334931 25.25551533 41.77088826 25.27099609 46.70874023 C25.28622817 51.48114125 25.32078893 56.25305891 25.36830902 61.02524376 C25.38305558 62.83868883 25.39103712 64.65220294 25.39188385 66.46570778 C25.33654396 82.67196968 25.33654396 82.67196968 32.3125 97 C38.31282117 101.46535529 43.62586707 102.55525163 50.9375 102.5 C52.12956055 102.4990332 52.12956055 102.4990332 53.34570312 102.49804688 C59.57146049 102.33893848 63.14956028 101.0420331 68 97 C68.66 97 69.32 97 70 97 C70.67561748 95.3369416 71.33933281 93.66905395 72 92 C72.51057449 90.79589478 73.02114899 89.59178955 73.54719543 88.35119629 C75.18107369 83.961995 75.44118987 80.02982954 75.43237305 75.38085938 C75.4425647 74.56039124 75.45275635 73.7399231 75.46325684 72.89459229 C75.49319873 70.21090703 75.50262373 67.52757979 75.51171875 64.84375 C75.52857942 62.97187125 75.54673152 61.10000373 75.56611633 59.22814941 C75.61347178 54.32262684 75.64337448 49.4171498 75.66955566 44.51147461 C75.69943434 39.49714163 75.74593948 34.48296531 75.79101562 29.46875 C75.87688433 19.64589758 75.94276416 9.82306103 76 0 C84.25 0 92.5 0 101 0 C101.11350793 11.08431093 101.20500624 22.16822821 101.25906086 33.25299168 C101.28502022 38.40154893 101.32016504 43.5496838 101.37719727 48.69799805 C101.43200888 53.67770911 101.46152292 58.65701702 101.47438622 63.63700676 C101.48353873 65.52540358 101.5014083 67.41378137 101.52865028 69.30200386 C101.73488818 84.20618782 100.69243477 98.51357254 90 110 C89.49984375 110.60070312 88.9996875 111.20140625 88.484375 111.8203125 C81.52520103 119.62404641 69.83956973 125.07584743 59.44433594 126.30126953 C56.7259763 126.43733814 54.03404772 126.4678057 51.3125 126.4375 C50.34787842 126.42920166 49.38325684 126.42090332 48.3894043 126.41235352 C33.63627243 126.06581585 21.08135745 121.58098752 10.625 110.8125 C-0.47737434 97.43504895 -0.29208774 81.05653946 -0.1953125 64.6484375 C-0.19157649 62.77943067 -0.1887323 60.91042186 -0.18673706 59.04141235 C-0.17914687 54.15226718 -0.15953863 49.26324321 -0.1373291 44.37414551 C-0.11677063 39.37314493 -0.10771407 34.37212452 -0.09765625 29.37109375 C-0.07628786 19.58066769 -0.04114396 9.79036295 0 0 Z " fill="#1F3C87" transform="translate(564,439)"/>
<path d="M0 0 C6.435 -0.0928125 6.435 -0.0928125 13 -0.1875 C14.33675781 -0.21481201 15.67351562 -0.24212402 17.05078125 -0.27026367 C31.41169511 -0.37023111 31.41169511 -0.37023111 36.54663086 4.45263672 C40.39750282 8.90983344 41.15474795 11.52848883 41.1875 17.3125 C41.20167969 18.44300781 41.21585938 19.57351563 41.23046875 20.73828125 C40.90538101 25.33909921 39.76292333 28.0575653 36.875 31.625 C29.44264405 37.76477231 21.70898803 37.38330074 12.5 37.1875 C8.375 37.125625 4.25 37.06375 0 37 C0 24.79 0 12.58 0 0 Z " fill="#F8FAFC" transform="translate(474,460)"/>
<path d="M0 0 C3.96082998 4.41784883 10.19987199 11.92853347 9.89453125 18.1484375 C8.76206862 20.49248679 7.44936122 21.49671769 5.375 23.0625 C-2.70936629 29.84526885 -6.9859977 39.43668577 -11 49 C-13.83483881 46.16516119 -14.25929481 42.77378874 -15.25 39 C-16.99140097 32.63204064 -19.06762514 27.39850196 -22.9609375 21.98046875 C-24 20 -24 20 -24.0703125 18.04296875 C-22.37119661 14.79976579 -19.46507335 13.11985291 -16.5 11.125 C-15.87013184 10.68881348 -15.24026367 10.25262695 -14.59130859 9.80322266 C-12.73568243 8.5230065 -10.87006998 7.25899621 -9 6 C-8.03320312 5.34515625 -7.06640625 4.6903125 -6.0703125 4.015625 C-4.05521688 2.66364392 -2.03381216 1.32359204 0 0 Z " fill="#F8FBFB" transform="translate(284,420)"/>
<path d="M0 0 C55 0 55 0 67 3 C67.99 3.99 68.98 4.98 70 6 C67.125 6.125 67.125 6.125 64 6 C63.34 5.34 62.68 4.68 62 4 C58.13995529 3.14949784 54.39754704 2.86072447 50.45361328 2.79467773 C49.39296661 2.77473251 48.33231995 2.75478729 47.23953247 2.73423767 C46.11118988 2.71752518 44.98284729 2.70081268 43.8203125 2.68359375 C42.6524118 2.66281265 41.48451111 2.64203156 40.28121948 2.62062073 C36.56253762 2.55540825 32.84378711 2.49637199 29.125 2.4375 C26.59895133 2.39428787 24.07290951 2.35067272 21.546875 2.30664062 C15.36465522 2.19975592 9.18236764 2.09793764 3 2 C2.97667062 17.62878361 2.95902063 33.25756253 2.94818783 48.88635921 C2.94302495 56.14258849 2.93598242 63.39880696 2.92456055 70.6550293 C2.91461344 76.97733856 2.90814651 83.29964001 2.90591151 89.62195688 C2.90460444 92.9715675 2.90151887 96.32115574 2.89426994 99.6707592 C2.8870638 103.40413645 2.88600888 107.13746658 2.88647461 110.87084961 C2.88287933 111.98934296 2.87928406 113.1078363 2.87557983 114.26022339 C2.8769545 115.27129654 2.87832916 116.28236969 2.87974548 117.32408142 C2.87882369 118.20808089 2.8779019 119.09208036 2.87695217 120.0028677 C2.77868406 121.99944555 2.77868406 121.99944555 4 123 C6.82256491 123.10007008 9.6152319 123.13875598 12.4375 123.125 C13.62182617 123.13080078 13.62182617 123.13080078 14.83007812 123.13671875 C19.04870745 123.24132469 19.04870745 123.24132469 23 122 C23 107.15 23 92.3 23 77 C23.66 77 24.32 77 25 77 C25 92.84 25 108.68 25 125 C16.75 125 8.5 125 0 125 C0 83.75 0 42.5 0 0 Z " fill="#42547E" transform="translate(449,439)"/>
<path d="M0 0 C0.66 0.33 1.32 0.66 2 1 C2.02333991 15.43805738 2.04091812 29.87611183 2.05181217 44.31418419 C2.0569728 51.01773076 2.06401108 57.72126563 2.07543945 64.42480469 C2.08627293 70.88921865 2.09227782 77.35362042 2.09487724 83.81804276 C2.09673066 86.28929461 2.10034967 88.76054576 2.10573006 91.23179245 C2.11294657 94.68237521 2.11399068 98.13290705 2.11352539 101.58349609 C2.11712067 102.61423752 2.12071594 103.64497894 2.12442017 104.70695496 C2.1230455 105.64367538 2.12167084 106.58039581 2.12025452 107.54550171 C2.12117631 108.36221029 2.1220981 109.17891888 2.12304783 110.02037621 C2 112 2 112 1 114 C1.79664063 113.91621094 2.59328125 113.83242188 3.4140625 113.74609375 C5.00347656 113.59333984 5.00347656 113.59333984 6.625 113.4375 C8.19121094 113.28087891 8.19121094 113.28087891 9.7890625 113.12109375 C13 113 13 113 19 114 C19 97.5 19 81 19 64 C19.66 64 20.32 64 21 64 C21 81.16 21 98.32 21 116 C13.08 116 5.16 116 -3 116 C-2.67 114.68 -2.34 113.36 -2 112 C-1.34 112.33 -0.68 112.66 0 113 C0 75.71 0 38.42 0 0 Z " fill="#1B3D7E" transform="translate(694,448)"/>
<path d="M0 0 C8.25 0 16.5 0 25 0 C25.11350793 11.08431093 25.20500624 22.16822821 25.25906086 33.25299168 C25.28502022 38.40154893 25.32016504 43.5496838 25.37719727 48.69799805 C25.43200888 53.67770911 25.46152292 58.65701702 25.47438622 63.63700676 C25.48353873 65.52540358 25.5014083 67.41378137 25.52865028 69.30200386 C25.69004816 80.96573664 25.12008766 91.2987066 20 102 C19.01 102.495 19.01 102.495 18 103 C17.67 101.68 17.34 100.36 17 99 C17.66 99 18.32 99 19 99 C20.67674349 93.80627631 21.39272406 89.08364374 21.61889648 83.64306641 C21.656566 82.85973749 21.69423552 82.07640858 21.73304653 81.26934242 C22.09607474 73.08326851 22.12722438 64.90338466 22.09765625 56.7109375 C22.09578323 55.14482672 22.09436353 53.57871534 22.09336853 52.01260376 C22.08961273 47.95876346 22.07984488 43.90496097 22.06866455 39.85113525 C22.05829813 35.68722037 22.05383884 31.52329917 22.04882812 27.359375 C22.03821376 19.23956434 22.02067643 11.11979128 22 3 C15.07 2.67 8.14 2.34 1 2 C1 30.71 1 59.42 1 89 C-0.485 89.495 -0.485 89.495 -2 90 C-1.83923477 89.18308685 -1.67846954 88.36617371 -1.51283264 87.52450562 C-0.93282258 83.53831487 -0.82495377 79.62627924 -0.79467773 75.60791016 C-0.78477814 74.78773407 -0.77487854 73.96755798 -0.76467896 73.12252808 C-0.7332458 70.4280683 -0.70837889 67.73359093 -0.68359375 65.0390625 C-0.6630085 63.16433266 -0.64201162 61.2896073 -0.62062073 59.41488647 C-0.56556231 54.49289589 -0.51608178 49.57086455 -0.46777344 44.64880371 C-0.41743955 39.62130122 -0.36181567 34.59385753 -0.30664062 29.56640625 C-0.19925769 19.71098599 -0.09825817 9.85551546 0 0 Z " fill="#324573" transform="translate(640,439)"/>
<path d="M0 0 C8.25 0 16.5 0 25 0 C25.33 29.37 25.66 58.74 26 89 C23.07230817 86.07230817 23.69204737 82.98726989 23.68115234 79.06201172 C23.67110672 78.24241974 23.6610611 77.42282776 23.65071106 76.57839966 C23.61975466 73.86216959 23.60280952 71.14603861 23.5859375 68.4296875 C23.56723585 66.54923645 23.54766321 64.66879387 23.5272522 62.7883606 C23.47581892 57.83344511 23.43625327 52.87850238 23.39910889 47.92346191 C23.35913925 42.86947835 23.30801489 37.8156092 23.2578125 32.76171875 C23.16092074 22.84122607 23.07655852 12.92066896 23 3 C19.85378318 3.13822199 16.70814434 3.28685084 13.5625 3.4375 C12.66466797 3.47681641 11.76683594 3.51613281 10.84179688 3.55664062 C9.98779297 3.59853516 9.13378906 3.64042969 8.25390625 3.68359375 C7.46314697 3.72025146 6.6723877 3.75690918 5.85766602 3.79467773 C3.98598559 3.80563257 3.98598559 3.80563257 3 5 C2.87497358 7.55499309 2.81395823 10.08430642 2.79467773 12.64086914 C2.78477814 13.44080795 2.77487854 14.24074677 2.76467896 15.06492615 C2.73297082 17.72163892 2.70826992 20.3783696 2.68359375 23.03515625 C2.66303225 24.87219215 2.642036 26.70922324 2.62062073 28.54624939 C2.56531696 33.39104318 2.51594445 38.23588025 2.46777344 43.08074951 C2.41761889 48.02066925 2.36190134 52.96052583 2.30664062 57.90039062 C2.19895754 67.60020651 2.09753527 77.30007714 2 87 C-0.50816366 83.23775451 -0.26746142 80.30213788 -0.22705078 75.94848633 C-0.22734283 75.12874832 -0.22763489 74.30901031 -0.22793579 73.46443176 C-0.22654188 70.75352411 -0.21097781 68.04289092 -0.1953125 65.33203125 C-0.19158259 63.45301972 -0.18873551 61.57400624 -0.18673706 59.69499207 C-0.17909889 54.74820592 -0.15944879 49.80153713 -0.1373291 44.85479736 C-0.11687466 39.80751127 -0.1077362 34.76020622 -0.09765625 29.71289062 C-0.07620308 19.80853388 -0.04101941 9.90429506 0 0 Z " fill="#384C7C" transform="translate(564,439)"/>
<path d="M0 0 C0.8971875 0.309375 0.8971875 0.309375 1.8125 0.625 C1.1525 1.264375 0.4925 1.90375 -0.1875 2.5625 C-1.1922777 3.57863112 -2.19156655 4.60019892 -3.1875 5.625 C-3.80367188 6.25664062 -4.41984375 6.88828125 -5.0546875 7.5390625 C-16.06359323 19.31902 -21.6433417 31.68613391 -21.61987305 47.76611328 C-21.6300647 48.83071274 -21.64025635 49.89531219 -21.65075684 50.99217224 C-21.68071395 54.47660707 -21.69012644 57.9607662 -21.69921875 61.4453125 C-21.71607822 63.87483623 -21.73423015 66.30435131 -21.75361633 68.7338562 C-21.80098448 75.10251155 -21.8308792 81.47113178 -21.85705566 87.83990479 C-21.88692773 94.34906952 -21.93343522 100.85811347 -21.97851562 107.3671875 C-22.06439876 120.11972581 -22.13237633 132.87229351 -22.1875 145.625 C-22.5175 145.625 -22.8475 145.625 -23.1875 145.625 C-23.28116332 130.80363479 -23.35158652 115.98230905 -23.39474869 101.16070747 C-23.41532713 94.27793578 -23.44335659 87.39534856 -23.48925781 80.51269531 C-23.53355939 73.86670231 -23.55665897 67.22085012 -23.56700897 60.57470322 C-23.57438197 58.04304876 -23.58877964 55.5114044 -23.61042023 52.9798317 C-23.63958844 49.42529171 -23.64345024 45.87153554 -23.64160156 42.31689453 C-23.66317322 40.75782127 -23.66317322 40.75782127 -23.68518066 39.16725159 C-23.6025665 24.42266577 -15.44469927 11.77284746 -5.1875 1.625 C-2.1875 -0.375 -2.1875 -0.375 0 0 Z " fill="#314164" transform="translate(295.1875,439.375)"/>
<path d="M0 0 C7.92 0 15.84 0 24 0 C24 40.92 24 81.84 24 124 C16.08 124 8.16 124 0 124 C0.495 123.01 0.495 123.01 1 122 C11.395 121.505 11.395 121.505 22 121 C22.02258857 106.37025477 22.04100343 91.7405204 22.05181217 77.11076164 C22.05696464 70.31764984 22.06398734 63.52454966 22.07543945 56.73144531 C22.08648522 50.17624073 22.09228391 43.62104368 22.09487724 37.06583023 C22.09672549 34.56439143 22.1003346 32.06295329 22.10573006 29.56151962 C22.11298448 26.05906494 22.11398907 22.5566602 22.11352539 19.05419922 C22.11712067 18.01913742 22.12071594 16.98407562 22.12442017 15.91764832 C22.1230455 14.95860092 22.12167084 13.99955353 22.12025452 13.01144409 C22.12117631 12.18367399 22.1220981 11.35590389 22.12304783 10.50304985 C21.98267306 7.64753379 21.47001084 4.82006504 21 2 C14.07 1.67 7.14 1.34 0 1 C0 0.67 0 0.34 0 0 Z " fill="#283A73" transform="translate(769,440)"/>
<path d="M0 0 C0.33 0 0.66 0 1 0 C1.02505615 0.63091553 1.0501123 1.26183105 1.07592773 1.91186523 C1.19154137 4.75396825 1.31442316 7.59571083 1.4375 10.4375 C1.47681641 11.43072266 1.51613281 12.42394531 1.55664062 13.44726562 C1.59853516 14.39150391 1.64042969 15.33574219 1.68359375 16.30859375 C1.72025146 17.18314209 1.75690918 18.05769043 1.79467773 18.95874023 C1.78181066 20.9927402 1.78181066 20.9927402 3 22 C3.12185143 23.34983748 3.17766831 24.70574701 3.20532227 26.06079102 C3.22526749 26.92160782 3.24521271 27.78242462 3.26576233 28.66932678 C3.28247482 29.60473801 3.29918732 30.54014923 3.31640625 31.50390625 C3.33718735 32.45692123 3.35796844 33.40993622 3.37937927 34.39183044 C3.44498177 37.4486441 3.50380918 40.50554656 3.5625 43.5625 C3.60567506 45.62956663 3.64928901 47.69662414 3.69335938 49.76367188 C3.80067401 54.84235595 3.90191091 59.9211297 4 65 C2.02 65.495 2.02 65.495 0 66 C0 44.22 0 22.44 0 0 Z " fill="#263B71" transform="translate(304,484)"/>
<path d="M0 0 C0.66 0 1.32 0 2 0 C2 17.16 2 34.32 2 52 C-5.92 52 -13.84 52 -22 52 C-22 51.34 -22 50.68 -22 50 C-19.45873828 49.80382184 -16.91739541 49.61782752 -14.375 49.4375 C-13.30572266 49.35338867 -13.30572266 49.35338867 -12.21484375 49.26757812 C-11.51230469 49.21923828 -10.80976562 49.17089844 -10.0859375 49.12109375 C-9.4470459 49.0739624 -8.8081543 49.02683105 -8.14990234 48.97827148 C-5.41214278 49.00594132 -2.70064732 49.54989211 0 50 C0 33.5 0 17 0 0 Z " fill="#273C6D" transform="translate(713,512)"/>
<path d="M0 0 C1.28680664 0.06574219 1.28680664 0.06574219 2.59960938 0.1328125 C3.48841797 0.184375 4.37722656 0.2359375 5.29296875 0.2890625 C6.6087793 0.35480469 6.6087793 0.35480469 7.95117188 0.421875 C12.84887953 0.6856259 17.63790627 1.13449582 22.48046875 1.9140625 C21.82046875 2.2440625 21.16046875 2.5740625 20.48046875 2.9140625 C20.48046875 3.5740625 20.48046875 4.2340625 20.48046875 4.9140625 C10.91046875 4.5840625 1.34046875 4.2540625 -8.51953125 3.9140625 C-8.51953125 15.7940625 -8.51953125 27.6740625 -8.51953125 39.9140625 C-8.84953125 39.9140625 -9.17953125 39.9140625 -9.51953125 39.9140625 C-9.5445874 38.99592773 -9.56964355 38.07779297 -9.59545898 37.13183594 C-9.69073395 33.71749225 -9.78995903 30.30331047 -9.8918457 26.88916016 C-9.9350916 25.4129686 -9.97677381 23.93673035 -10.0168457 22.46044922 C-10.07479971 20.33546902 -10.13842071 18.21072157 -10.203125 16.0859375 C-10.23978271 14.8081543 -10.27644043 13.53037109 -10.31420898 12.21386719 C-10.40709053 9.0507516 -10.40709053 9.0507516 -11.11352539 6.60253906 C-11.51953125 4.9140625 -11.51953125 4.9140625 -10.33203125 2.7265625 C-7.29617581 -0.30929294 -4.13045002 -0.21800435 0 0 Z " fill="#253D73" transform="translate(482.51953125,456.0859375)"/>
<path d="M0 0 C5.50415313 6.70070815 4.76190007 15.71459627 4 24 C2.40992839 31.04174572 -1.07226158 35.84827347 -6 41 C-6.66 40.34 -7.32 39.68 -8 39 C-7.34 39 -6.68 39 -6 39 C-5.67 37.35 -5.34 35.7 -5 34 C-4.34 34 -3.68 34 -3 34 C-2.34 30.7 -1.68 27.4 -1 24 C0.32 23.67 1.64 23.34 3 23 C3 20.03 3 17.06 3 14 C1.35 14 -0.3 14 -2 14 C-1.85970581 11.8537974 -1.71261836 9.70803782 -1.5625 7.5625 C-1.48128906 6.36753906 -1.40007812 5.17257812 -1.31640625 3.94140625 C-1 1 -1 1 0 0 Z " fill="#284181" transform="translate(364,474)"/>
<path d="M0 0 C2.97 0 5.94 0 9 0 C9 0.66 9 1.32 9 2 C19.6882541 3.39316405 30.43396127 3.11148475 41.1875 3.0625 C43.11262904 3.05747525 45.03775936 3.05291406 46.96289062 3.04882812 C51.64195884 3.03789915 56.32096517 3.0206882 61 3 C53.78103042 7.81264638 43.00675439 6.28072413 34.5625 6.3125 C33.85189423 6.31578308 33.14128845 6.31906616 32.40914917 6.32244873 C21.68454415 6.33850013 11.09337323 6.0139104 1 2 C0.67 1.34 0.34 0.68 0 0 Z M20 2 C22 3 22 3 22 3 Z " fill="#2D3D7A" transform="translate(288,608)"/>
<path d="M0 0 C1.65 0.66 3.3 1.32 5 2 C5 2.66 5 3.32 5 4 C5.66 4 6.32 4 7 4 C6.67 5.32 6.34 6.64 6 8 C5.01 6.68 4.02 5.36 3 4 C-0.08434935 6.10268034 -3.16729875 8.2074043 -6.25 10.3125 C-7.12269531 10.90740234 -7.99539063 11.50230469 -8.89453125 12.11523438 C-9.73886719 12.69208984 -10.58320313 13.26894531 -11.453125 13.86328125 C-12.22817383 14.39219971 -13.00322266 14.92111816 -13.80175781 15.46606445 C-18.87188916 18.88829884 -18.87188916 18.88829884 -22 24 C-22.66 22.68 -23.32 21.36 -24 20 C-23.01 19.67 -22.02 19.34 -21 19 C-21 18.01 -21 17.02 -21 16 C-19.35 15.67 -17.7 15.34 -16 15 C-16 14.34 -16 13.68 -16 13 C-15.34 13 -14.68 13 -14 13 C-13.690625 12.195625 -13.38125 11.39125 -13.0625 10.5625 C-12 8 -12 8 -11 7 C-9.00041636 6.95919217 -6.99954746 6.95745644 -5 7 C-4.67 6.01 -4.34 5.02 -4 4 C-1.9375 2.8125 -1.9375 2.8125 0 2 C0 1.34 0 0.68 0 0 Z " fill="#2D4278" transform="translate(281,417)"/>
<path d="M0 0 C0 0.66 0 1.32 0 2 C-5 1 -5 1 -7.3125 0.4375 C-12.52891032 -0.41168308 -17.30435733 -0.75261812 -22 2 C-22.804375 2.0825 -23.60875 2.165 -24.4375 2.25 C-28.30608736 3.38226947 -29.62125544 5.80568587 -32 9 C-32.99 8.67 -33.98 8.34 -35 8 C-34.67 7.34 -34.34 6.68 -34 6 C-34 5.01 -34 4.02 -34 3 C-32.60922699 2.17886823 -31.21211107 1.36847505 -29.8125 0.5625 C-29.03519531 0.11003906 -28.25789063 -0.34242188 -27.45703125 -0.80859375 C-18.76142288 -5.02506522 -8.62260333 -3.5767836 0 0 Z " fill="#2C3F78" transform="translate(350,461)"/>
<path d="M0 0 C0.33 0 0.66 0 1 0 C1 28.38 1 56.76 1 86 C-0.485 86.495 -0.485 86.495 -2 87 C-1.83923477 86.17740692 -1.67846954 85.35481384 -1.51283264 84.5072937 C-0.94401701 80.61712889 -0.82535214 76.80503531 -0.79467773 72.88330078 C-0.78477814 72.09238541 -0.77487854 71.30147003 -0.76467896 70.48658752 C-0.73325812 67.88952561 -0.70838386 65.29244545 -0.68359375 62.6953125 C-0.66300743 60.88784325 -0.64201052 59.08037863 -0.62062073 57.2729187 C-0.56557335 52.52848068 -0.51608801 47.78400047 -0.46777344 43.03948975 C-0.41743143 38.19295521 -0.36181181 33.34648154 -0.30664062 28.5 C-0.19927123 19.00005206 -0.09777961 9.50005115 0 0 Z " fill="#283E75" transform="translate(640,442)"/>
<path d="M0 0 C0 0.66 0 1.32 0 2 C-7.75749015 5.66598691 -14.77318283 6.38630808 -23.25 6.375 C-24.18408691 6.37628906 -25.11817383 6.37757813 -26.08056641 6.37890625 C-31.69776939 6.29105946 -36.60874046 5.58194235 -42 4 C-41.67 3.34 -41.34 2.68 -41 2 C-37.6246637 2.30893366 -34.24980189 2.62278633 -30.875 2.9375 C-29.92367187 3.02451172 -28.97234375 3.11152344 -27.9921875 3.20117188 C-23.29053519 3.64195178 -18.64667498 4.13168195 -14 5 C-14 4.34 -14 3.68 -14 3 C-9.03006806 0.56574762 -5.65394631 -0.34615998 0 0 Z " fill="#354B7C" transform="translate(638,559)"/>
<path d="M0 0 C6.50454122 1.4140307 11.94155355 0.35629316 18.24609375 -1.51171875 C20.57825219 -1.58575553 22.91470163 -1.60687761 25.24609375 -1.51171875 C19.36763682 3.29059046 12.01499838 5.05301095 4.48828125 4.78515625 C-0.36024648 4.14319091 -5.24698585 2.99520165 -8.75390625 -0.51171875 C-5.23479167 -1.68475694 -3.4823884 -0.93928641 0 0 Z " fill="#334779" transform="translate(328.75390625,518.51171875)"/>
<path d="M0 0 C2.40345974 3.60518961 3.13301598 7.15279394 4.0625 11.3125 C4.23587891 12.05951172 4.40925781 12.80652344 4.58789062 13.57617188 C5.98627867 19.67871588 7.13147344 25.54594044 7.09765625 31.8359375 C7.09443359 32.89941406 7.09121094 33.96289062 7.08789062 35.05859375 C7.07951172 36.15300781 7.07113281 37.24742187 7.0625 38.375 C7.05798828 39.49261719 7.05347656 40.61023438 7.04882812 41.76171875 C7.03709244 44.50786804 7.02067363 47.25390586 7 50 C6.67 50 6.34 50 6 50 C5.92483154 48.9644397 5.92483154 48.9644397 5.84814453 47.90795898 C5.61465298 44.75052841 5.36992156 41.59406368 5.125 38.4375 C5.04636719 37.35146484 4.96773438 36.26542969 4.88671875 35.14648438 C4.43879297 29.47850051 3.63332388 24.46142672 2 19 C1.50248468 15.698466 1.18337694 12.38639903 0.875 9.0625 C0.78863281 8.18787109 0.70226562 7.31324219 0.61328125 6.41210938 C0.40310303 4.27529746 0.20074482 2.13771878 0 0 Z " fill="#3F5483" transform="translate(431,462)"/>
<path d="M0 0 C0.66 0.33 1.32 0.66 2 1 C5.08808807 18.55855203 3.8913007 38.83401557 -4 55 C-4.99 55.495 -4.99 55.495 -6 56 C-5.25 49.375 -5.25 49.375 -3 46 C-2.5823059 44.13812174 -2.23344062 42.26006715 -1.9375 40.375 C-1.09984399 35.09984399 -1.09984399 35.09984399 0 34 C1.69982609 22.66782604 1.1465479 11.36310867 0 0 Z " fill="#2D4279" transform="translate(434,487)"/>
<path d="M0 0 C0.59296875 0.21140625 1.1859375 0.4228125 1.796875 0.640625 C1.136875 1.28 0.476875 1.919375 -0.203125 2.578125 C-5.55275933 7.92775933 -10.57267821 13.65963123 -15.203125 19.640625 C-15.863125 18.650625 -16.523125 17.660625 -17.203125 16.640625 C-5.22008358 -0.851503 -5.22008358 -0.851503 0 0 Z " fill="#3B4F76" transform="translate(295.203125,439.359375)"/>
<path d="M0 0 C6.10412256 6.97614007 6.46506358 14.37647133 6.3046875 23.27734375 C5.90622994 28.1456778 4.79096116 32.46929469 3 37 C2.67 37 2.34 37 2 37 C1.97291433 35.39592672 1.95356517 33.7917215 1.9375 32.1875 C1.92589844 31.29417969 1.91429687 30.40085937 1.90234375 29.48046875 C2 27 2 27 3 24 C2.96329438 21.72707514 2.8492887 19.45495654 2.6875 17.1875 C2.60886719 15.98480469 2.53023437 14.78210938 2.44921875 13.54296875 C2.0146099 10.11522764 1.11244666 7.2556092 0 4 C0 2.68 0 1.36 0 0 Z " fill="#354B79" transform="translate(535,457)"/>
<path d="M0 0 C1.485 0.99 1.485 0.99 3 2 C3.66 2 4.32 2 5 2 C5.0825 3.27875 5.165 4.5575 5.25 5.875 C5.47264942 8.06001747 5.47264942 8.06001747 6 10 C7.81701858 11.40854666 7.81701858 11.40854666 10 12 C11.5625 13.375 11.5625 13.375 13 15 C13.5775 15.639375 14.155 16.27875 14.75 16.9375 C16 19 16 19 15.6875 21.25 C15.460625 21.8275 15.23375 22.405 15 23 C10.40766626 19.77049911 7.73894385 16.07752211 4.75 11.4375 C4.30398437 10.76525391 3.85796875 10.09300781 3.3984375 9.40039062 C1.54678183 6.57521296 0.07581712 4.22745135 -1 1 C-0.67 0.67 -0.34 0.34 0 0 Z " fill="#2D447D" transform="translate(224,554)"/>
<path d="M0 0 C0.33 0 0.66 0 1 0 C1.55387994 7.38506585 -1.23848279 12.84479002 -5 19 C-5.69579454 21.19130534 -5.69579454 21.19130534 -6 23 C-6.66 23 -7.32 23 -8 23 C-8.33 23.99 -8.66 24.98 -9 26 C-10.29666884 23.0047708 -9.92504507 21.76096193 -8.92578125 18.57421875 C-8.39956258 17.27391519 -7.86136048 15.97840961 -7.3125 14.6875 C-7.05533203 14.04876953 -6.79816406 13.41003906 -6.53320312 12.75195312 C-4.68804653 8.27733504 -2.47058402 4.16070032 0 0 Z " fill="#2D417C" transform="translate(224,442)"/>
<path d="M0 0 C0.99 0 1.98 0 3 0 C2.00102287 2.99693138 1.34869747 4.02709413 -1 6 C-1.66 6 -2.32 6 -3 6 C-3.0825 6.5775 -3.165 7.155 -3.25 7.75 C-4.64505182 11.93515546 -8.38049918 14.65797005 -12 17 C-13.9959722 17.67863055 -15.99568551 18.34641919 -18 19 C-18.66 19.66 -19.32 20.32 -20 21 C-20.99 21 -21.98 21 -23 21 C-23 20.34 -23 19.68 -23 19 C-21.19921875 17.84375 -21.19921875 17.84375 -18.6875 16.5 C-11.55013579 12.37641583 -4.60266371 6.90399557 0 0 Z " fill="#2F467C" transform="translate(386,528)"/>
<path d="M0 0 C1.85776765 3.13498292 2.20140476 5.37471432 2 9 C2.66 9 3.32 9 4 9 C4 10.65 4 12.3 4 14 C4.66 14 5.32 14 6 14 C6.33 14.99 6.66 15.98 7 17 C7.66 17.33 8.32 17.66 9 18 C9.625 21.0625 9.625 21.0625 10 24 C9.34 24.33 8.68 24.66 8 25 C-1.6453795 11.51519759 -1.6453795 11.51519759 -0.6875 3.5 C-0.460625 2.345 -0.23375 1.19 0 0 Z " fill="#273F75" transform="translate(567,525)"/>
<path d="M0 0 C2.55806622 4.17721676 1.75673341 6.79305021 0.71484375 11.3828125 C-0.28439546 15.04122929 -1.56937073 18.48845543 -3 22 C-2.34 22.33 -1.68 22.66 -1 23 C-2.8125 25 -2.8125 25 -5 27 C-5.99 27 -6.98 27 -8 27 C-8.33 27.66 -8.66 28.32 -9 29 C-9 25.30405002 -7.84428961 23.42245474 -6.1875 20.125 C-3.06490103 13.56237474 -1.32898028 7.12286799 0 0 Z " fill="#2F467C" transform="translate(398,498)"/>
<path d="M0 0 C-1.05776181 3.36696012 -2.14446213 4.08522227 -5.2578125 5.921875 C-6.54096087 6.54360668 -7.83032007 7.15265262 -9.125 7.75 C-10.11306641 8.22373047 -10.11306641 8.22373047 -11.12109375 8.70703125 C-12.74218853 9.48233745 -14.37043584 10.24265686 -16 11 C-16 10.01 -16 9.02 -16 8 C-15.34 8 -14.68 8 -14 8 C-13.34 6.02 -12.68 4.04 -12 2 C-11.071875 1.855625 -10.14375 1.71125 -9.1875 1.5625 C-0.33333333 0 -0.33333333 0 0 0 Z " fill="#2A417B" transform="translate(389,592)"/>
<path d="M0 0 C0 0.33 0 0.66 0 1 C-0.76183594 1.10957031 -1.52367187 1.21914063 -2.30859375 1.33203125 C-9.49572545 2.4356732 -16.57760231 3.65478911 -23.0625 7.09375 C-25 8 -25 8 -28 8 C-28 7.01 -28 6.02 -28 5 C-25.50261142 4.17865011 -23.00255195 3.36784252 -20.5 2.5625 C-19.80390625 2.33240234 -19.1078125 2.10230469 -18.390625 1.86523438 C-5.77375 -2.16515625 -5.77375 -2.16515625 0 0 Z " fill="#384B7D" transform="translate(312,387)"/>
<path d="M0 0 C1.10408203 0.05671875 2.20816406 0.1134375 3.34570312 0.171875 C6.0437496 0.31203326 8.74067356 0.46329907 11.4375 0.625 C11.1075 1.615 10.7775 2.605 10.4375 3.625 C9.44363281 3.46386719 8.44976562 3.30273438 7.42578125 3.13671875 C-2.50337303 1.72682376 -12.86990453 2.01545507 -22.5625 4.625 C-22.2325 3.635 -21.9025 2.645 -21.5625 1.625 C-14.29537176 -0.70468951 -7.54994014 -0.45508982 0 0 Z " fill="#284175" transform="translate(340.5625,425.375)"/>
<path d="M0 0 C1.65 1.65 3.3 3.3 5 5 C4.01 5.66 3.02 6.32 2 7 C1.48779459 10.10213725 1.48779459 10.10213725 1.48828125 13.7578125 C1.47033005 14.42086395 1.45237885 15.08391541 1.43388367 15.76705933 C1.37967076 17.88630803 1.34585229 20.00533025 1.3125 22.125 C1.27933633 23.56122952 1.24484755 24.9974291 1.20898438 26.43359375 C1.12394036 29.95551129 1.05718127 33.47750759 1 37 C1.66 37 2.32 37 3 37 C2.67 37.99 2.34 38.98 2 40 C1.34 40 0.68 40 0 40 C0 26.8 0 13.6 0 0 Z " fill="#EEFAFE" transform="translate(307,507)"/>
<path d="M0 0 C2.57075841 3.01447835 3.52207066 5.35979771 4.1875 9.25 C4.34605469 10.14203125 4.50460938 11.0340625 4.66796875 11.953125 C4.83232422 12.96632813 4.83232422 12.96632813 5 14 C5.66 14 6.32 14 7 14 C9.62886598 20.30927835 9.62886598 20.30927835 10 23 C9.34 23.66 8.68 24.32 8 25 C6.67968946 21.94080952 5.3701594 18.87711716 4.0625 15.8125 C3.68931641 14.94818359 3.31613281 14.08386719 2.93164062 13.19335938 C2.57392578 12.35224609 2.21621094 11.51113281 1.84765625 10.64453125 C1.51773682 9.87471924 1.18781738 9.10490723 0.84790039 8.31176758 C-0.04586581 5.87494864 -0.63582891 3.56962876 -1 1 C-0.67 0.67 -0.34 0.34 0 0 Z " fill="#314377" transform="translate(214,530)"/>
<path d="M0 0 C2.27991712 1.77502198 2.95047123 2.6300787 3.34057617 5.54370117 C3.32486572 6.53345947 3.30915527 7.52321777 3.29296875 8.54296875 C3.28330078 9.61611328 3.27363281 10.68925781 3.26367188 11.79492188 C3.23853516 12.91447266 3.21339844 14.03402344 3.1875 15.1875 C3.16719727 16.88422852 3.16719727 16.88422852 3.14648438 18.61523438 C3.11109958 21.41063317 3.06172948 24.20507892 3 27 C2.67 27 2.34 27 2 27 C0.09572892 17.86970027 -0.22823248 9.28145408 0 0 Z " fill="#243B70" transform="translate(209,493)"/>
<path d="M0 0 C2.97 0 5.94 0 9 0 C9 0.66 9 1.32 9 2 C16.425 2.99 16.425 2.99 24 4 C23.67 4.66 23.34 5.32 23 6 C15.47804173 5.57807197 8.07854077 4.72954801 1 2 C0.67 1.34 0.34 0.68 0 0 Z M20 2 C22 3 22 3 22 3 Z " fill="#364D7B" transform="translate(288,608)"/>
<path d="M0 0 C0.33 0.99 0.66 1.98 1 3 C-0.62414378 3.19477739 -2.24936423 3.38059458 -3.875 3.5625 C-4.77992188 3.66691406 -5.68484375 3.77132812 -6.6171875 3.87890625 C-9 4 -9 4 -11 3 C-12.87379605 2.92966231 -14.75001102 2.9156978 -16.625 2.9375 C-18.12933594 2.95103516 -18.12933594 2.95103516 -19.6640625 2.96484375 C-20.82035156 2.98224609 -20.82035156 2.98224609 -22 3 C-22.33 2.34 -22.66 1.68 -23 1 C-15.3164908 0.38794237 -7.70947565 -0.13292199 0 0 Z " fill="#253F75" transform="translate(351,553)"/>
<path d="M0 0 C0.66 0.66 1.32 1.32 2 2 C1.828125 4.109375 1.828125 4.109375 1.25 6.75 C-0.12303951 13.46362827 -1.06863456 20.21292203 -2 27 C-2.66 26.67 -3.32 26.34 -4 26 C-4.5330499 17.29351826 -2.75145912 8.25437737 0 0 Z " fill="#3F5080" transform="translate(213,467)"/>
<path d="M0 0 C2 3 2 3 1.9375 5.4375 C0.68902426 8.85000035 -0.98536574 10.03698234 -4 12 C-6.3125 12.75 -6.3125 12.75 -8 13 C-8.33 12.01 -8.66 11.02 -9 10 C-5.25 7 -5.25 7 -3 7 C-2.690625 6.21625 -2.38125 5.4325 -2.0625 4.625 C-1 2 -1 2 0 0 Z " fill="#2B457E" transform="translate(637,529)"/>
<path d="M0 0 C0.99 0.33 1.98 0.66 3 1 C2.09515208 2.15518918 1.1755794 3.29885406 0.25 4.4375 C-0.26046875 5.07558594 -0.7709375 5.71367187 -1.296875 6.37109375 C-3.22110317 8.21146794 -4.37416295 8.70646131 -7 9 C-7.66 8.67 -8.32 8.34 -9 8 C-9 8.66 -9 9.32 -9 10 C-10.32 9.67 -11.64 9.34 -13 9 C-11.39612733 7.8745809 -9.79189084 6.74968028 -8.1875 5.625 C-7.29417969 4.99851562 -6.40085937 4.37203125 -5.48046875 3.7265625 C-3.66732122 2.46449761 -1.83811789 1.22541192 0 0 Z " fill="#2B4078" transform="translate(268,399)"/>
<path d="M0 0 C6.6312909 -0.49120673 12.18606681 0.61137228 18 4 C18.33 4.99 18.66 5.98 19 7 C11.47576154 6.1365628 6.05137698 4.75465334 0 0 Z " fill="#2A4278" transform="translate(352,391)"/>
<path d="M0 0 C2.31 0.33 4.62 0.66 7 1 C7.28875 2.093125 7.5775 3.18625 7.875 4.3125 C8.81893204 8.04013845 8.81893204 8.04013845 11 11 C11.125 13.6875 11.125 13.6875 11 16 C8.72695131 13.00180694 6.53566363 9.95509495 4.375 6.875 C3.76398438 6.00617188 3.15296875 5.13734375 2.5234375 4.2421875 C1 2 1 2 0 0 Z " fill="#2B407D" transform="translate(383,448)"/>
<path d="M0 0 C1.21236328 0.02707031 1.21236328 0.02707031 2.44921875 0.0546875 C3.37154297 0.08949219 3.37154297 0.08949219 4.3125 0.125 C0.79427751 4.56101966 -3.44140186 5.64533129 -8.6875 7.125 C-8.375 4.75 -8.375 4.75 -7.6875 2.125 C-4.48369983 -0.01086678 -3.66810033 -0.10632175 0 0 Z " fill="#1E387B" transform="translate(520.6875,506.875)"/>
<path d="M0 0 C4.81033104 2.54664585 8.32442148 4.99027798 12 9 C11.67 9.66 11.34 10.32 11 11 C8.03 10.505 8.03 10.505 5 10 C5.33 9.01 5.66 8.02 6 7 C5.01 7 4.02 7 3 7 C3 6.34 3 5.68 3 5 C2.34 5 1.68 5 1 5 C0.67 3.35 0.34 1.7 0 0 Z " fill="#354981" transform="translate(522,445)"/>
<path d="M0 0 C0.96035156 0.31710937 1.92070313 0.63421875 2.91015625 0.9609375 C7.39134925 2.24127836 11.80075534 2.44565774 16.4375 2.625 C17.67790039 2.68300781 17.67790039 2.68300781 18.94335938 2.7421875 C20.96191073 2.83553092 22.98092331 2.91880961 25 3 C25 2.34 25 1.68 25 1 C26.32 1.33 27.64 1.66 29 2 C29 2.66 29 3.32 29 4 C19.43 4 9.86 4 0 4 C0 2.68 0 1.36 0 0 Z " fill="#2B3D69" transform="translate(513,560)"/>
<path d="M0 0 C0.66 0.33 1.32 0.66 2 1 C0.71034824 2.37562854 -0.62689293 3.70766393 -2 5 C-2.66 5 -3.32 5 -4 5 C-4.33 5.99 -4.66 6.98 -5 8 C-5.99 8.33 -6.98 8.66 -8 9 C-9.3743291 10.29103643 -10.70896357 11.6256709 -12 13 C-12.66 13.66 -13.32 14.32 -14 15 C-14.33 13.68 -14.66 12.36 -15 11 C-13.06324055 9.54067427 -11.12562712 8.08250736 -9.1875 6.625 C-8.64029297 6.2125 -8.09308594 5.8 -7.52929688 5.375 C-5.05553395 3.51592968 -2.57565041 1.71710028 0 0 Z " fill="#E0ECF6" transform="translate(275,426)"/>
<path d="M0 0 C6.27 0.66 12.54 1.32 19 2 C19 2.66 19 3.32 19 4 C11.95559921 4.21133202 5.75887425 4.07965362 -1 2 C-0.67 1.34 -0.34 0.68 0 0 Z " fill="#2F4375" transform="translate(597,561)"/>
<path d="M0 0 C0.66 0.99 1.32 1.98 2 3 C-1.40376894 4.70188447 -5.18675899 4.18458114 -8.9375 4.1875 C-10.1740332 4.20586914 -10.1740332 4.20586914 -11.43554688 4.22460938 C-12.62567383 4.22750977 -12.62567383 4.22750977 -13.83984375 4.23046875 C-14.56550537 4.23457764 -15.29116699 4.23868652 -16.03881836 4.24291992 C-18 4 -18 4 -21 2 C-19.68 1.67 -18.36 1.34 -17 1 C-17 1.66 -17 2.32 -17 3 C-14.35346869 2.69268013 -11.707885 2.37940678 -9.0625 2.0625 C-7.93038086 1.93198242 -7.93038086 1.93198242 -6.77539062 1.79882812 C-3.07812542 1.65675901 -3.07812542 1.65675901 0 0 Z " fill="#EBF7FD" transform="translate(624,538)"/>
<path d="M0 0 C0.58265625 0.22558594 1.1653125 0.45117188 1.765625 0.68359375 C-1.40390347 3.94368018 -4.63375489 6.90597252 -8.234375 9.68359375 C-8.564375 8.36359375 -8.894375 7.04359375 -9.234375 5.68359375 C-8.16544282 4.64769037 -7.07859012 3.63025433 -5.984375 2.62109375 C-5.38109375 2.05261719 -4.7778125 1.48414063 -4.15625 0.8984375 C-2.234375 -0.31640625 -2.234375 -0.31640625 0 0 Z " fill="#30426E" transform="translate(295.234375,439.31640625)"/>
<path d="M0 0 C1.65 0 3.3 0 5 0 C5.33 0.66 5.66 1.32 6 2 C8.02463255 2.65213292 8.02463255 2.65213292 10 3 C10 3.66 10 4.32 10 5 C10.66 5 11.32 5 12 5 C13.625 6.375 13.625 6.375 15 8 C15 8.66 15 9.32 15 10 C11.43574301 8.68552225 8.40275366 7.11594205 5.25 5 C4.47140625 4.484375 3.6928125 3.96875 2.890625 3.4375 C1 2 1 2 0 0 Z " fill="#32487B" transform="translate(255,591)"/>
<path d="M0 0 C0.33 0 0.66 0 1 0 C1.66 3.63 2.32 7.26 3 11 C3.66 11 4.32 11 5 11 C5.33 12.65 5.66 14.3 6 16 C5.01 16.33 4.02 16.66 3 17 C2.67 16.34 2.34 15.68 2 15 C1.34 15.66 0.68 16.32 0 17 C-0.89316269 11.06390334 -0.97040422 5.93024803 0 0 Z " fill="#28428F" transform="translate(586,515)"/>
<path d="M0 0 C5.93008355 2.31417894 9.11995791 6.16716651 13 11 C9.07620945 11 7.99491322 9.39593058 5 7 C4.01 7 3.02 7 2 7 C1.34 4.69 0.68 2.38 0 0 Z " fill="#32437D" transform="translate(351,462)"/>
<path d="M0 0 C2.62429743 3.13709118 3.95420147 6.13194468 5.25 10 C5.60578125 11.03125 5.9615625 12.0625 6.328125 13.125 C6.9907779 15.96053799 7.00586171 17.31770211 6 20 C3.80303036 16.70454554 3.08200806 13.78702822 2 10 C1.34 9.01 0.68 8.02 0 7 C-0.07905064 4.66800612 -0.08798769 2.33167378 0 0 Z " fill="#384B7A" transform="translate(264,446)"/>
<path d="M0 0 C0.99 0.99 1.98 1.98 3 3 C-0.63 6.96 -4.26 10.92 -8 15 C-8.33 13.68 -8.66 12.36 -9 11 C-8.34 11 -7.68 11 -7 11 C-6.67 10.01 -6.34 9.02 -6 8 C-5 7 -4 6 -3 5 C-2.67 4.01 -2.34 3.02 -2 2 C-1.34 2 -0.68 2 0 2 C0 1.34 0 0.68 0 0 Z " fill="#2F4475" transform="translate(411,568)"/>
<path d="M0 0 C1.98 0 3.96 0 6 0 C6.33 3.63 6.66 7.26 7 11 C3.66428571 9.88809524 3.41582921 9.53679327 1.8125 6.625 C1.46832031 6.01914062 1.12414062 5.41328125 0.76953125 4.7890625 C0 3 0 3 0 0 Z " fill="#2B4278" transform="translate(487,515)"/>
<path d="M0 0 C5.31027254 1.46032495 9.46330032 3.98320986 14 7 C13.34 7.66 12.68 8.32 12 9 C10.0546875 8.7578125 10.0546875 8.7578125 7.875 8.125 C6.78832031 7.81949219 6.78832031 7.81949219 5.6796875 7.5078125 C4.84824219 7.25644531 4.84824219 7.25644531 4 7 C4 5.68 4 4.36 4 3 C2.68 2.67 1.36 2.34 0 2 C0 1.34 0 0.68 0 0 Z " fill="#2F427C" transform="translate(374,398)"/>
<path d="M0 0 C0.77601563 0.15339844 1.55203125 0.30679688 2.3515625 0.46484375 C7.02199468 1.14990714 11.66255085 1.35746477 16.375 1.5625 C17.30183594 1.60568359 18.22867187 1.64886719 19.18359375 1.69335938 C21.45560294 1.79876186 23.72770925 1.90088606 26 2 C26 2.33 26 2.66 26 3 C22.41713181 3.19720979 18.83369943 3.38107522 15.25 3.5625 C14.23421875 3.61857422 13.2184375 3.67464844 12.171875 3.73242188 C10.70234375 3.80493164 10.70234375 3.80493164 9.203125 3.87890625 C8.30239258 3.9260376 7.40166016 3.97316895 6.47363281 4.02172852 C4.12542592 4.00110175 2.23793298 3.67823071 0 3 C0 2.01 0 1.02 0 0 Z " fill="#4E628F" transform="translate(316,551)"/>
<path d="M0 0 C4.875 4.625 4.875 4.625 6 8 C6.66 8 7.32 8 8 8 C7 10 6 12 5 14 C3.96958487 12.04669132 2.9509107 10.08718472 1.9375 8.125 C1.08478516 6.48917969 1.08478516 6.48917969 0.21484375 4.8203125 C-0.18605469 3.88960937 -0.58695312 2.95890625 -1 2 C-0.67 1.34 -0.34 0.68 0 0 Z " fill="#2E417D" transform="translate(495,527)"/>
<path d="M0 0 C0.103125 0.639375 0.20625 1.27875 0.3125 1.9375 C0.539375 2.618125 0.76625 3.29875 1 4 C1.99 4.33 2.98 4.66 4 5 C3.67 5.66 3.34 6.32 3 7 C5.31 7.66 7.62 8.32 10 9 C10 9.66 10 10.32 10 11 C10.66 11.33 11.32 11.66 12 12 C11.01 12.33 10.02 12.66 9 13 C4.61203995 10.76691934 1.50038921 8.12587572 -0.5 3.625 C-0.665 2.75875 -0.83 1.8925 -1 1 C-0.67 0.67 -0.34 0.34 0 0 Z " fill="#31467C" transform="translate(579,547)"/>
<path d="M0 0 C2.09186647 4.18373294 2.21537015 4.70422146 1.25 8.9375 C1.05148437 9.81019531 0.85296875 10.68289063 0.6484375 11.58203125 C-0.04187259 14.15613935 -0.87224298 16.5833778 -2 19 C-2.66 18.67 -3.32 18.34 -4 18 C-2.68 12.06 -1.36 6.12 0 0 Z " fill="#3F5281" transform="translate(398,498)"/>
<path d="M0 0 C0.99 0 1.98 0 3 0 C1.63589551 5.59282842 -1.15383526 8.91193811 -5 13 C-5.66 12.34 -6.32 11.68 -7 11 C-6.34 11 -5.68 11 -5 11 C-4.67 9.35 -4.34 7.7 -4 6 C-3.34 6 -2.68 6 -2 6 C-1.34 4.02 -0.68 2.04 0 0 Z " fill="#354879" transform="translate(363,502)"/>
<path d="M0 0 C1.41791408 0.45445964 2.83428046 0.91374944 4.25 1.375 C5.43335938 1.75785156 5.43335938 1.75785156 6.640625 2.1484375 C8.86627958 2.95173667 10.90931672 3.89711662 13 5 C13 5.66 13 6.32 13 7 C13.66 7 14.32 7 15 7 C14.67 7.99 14.34 8.98 14 10 C13.32453125 9.59007812 12.6490625 9.18015625 11.953125 8.7578125 C11.06109375 8.21898437 10.1690625 7.68015625 9.25 7.125 C8.36828125 6.59132813 7.4865625 6.05765625 6.578125 5.5078125 C4.41725907 4.24403334 2.25429605 3.08501165 0 2 C0 1.34 0 0.68 0 0 Z " fill="#394B7E" transform="translate(359,430)"/>
<path d="M0 0 C-0.66 1.65 -1.32 3.3 -2 5 C-3.98 5 -5.96 5 -8 5 C-8.33 5.66 -8.66 6.32 -9 7 C-10.32 6.34 -11.64 5.68 -13 5 C-11.39967863 4.15930585 -9.79458829 3.32768495 -8.1875 2.5 C-6.84751953 1.80390625 -6.84751953 1.80390625 -5.48046875 1.09375 C-3 0 -3 0 0 0 Z " fill="#364A7D" transform="translate(283,393)"/>
<path d="M0 0 C0.66 0.66 1.32 1.32 2 2 C0.35 5.63 -1.3 9.26 -3 13 C-3.66 12.34 -4.32 11.68 -5 11 C-4.84971611 6.94233489 -4.59155055 4.6991052 -1.9375 1.5625 C-0.9784375 0.7890625 -0.9784375 0.7890625 0 0 Z " fill="#DFEDF7" transform="translate(276,456)"/>
<path d="M0 0 C3.96 0 7.92 0 12 0 C12 0.66 12 1.32 12 2 C10.02 2.99 10.02 2.99 8 4 C8 3.34 8 2.68 8 2 C6.02 2 4.04 2 2 2 C1.67 2.99 1.34 3.98 1 5 C0.67 5 0.34 5 0 5 C0 3.35 0 1.7 0 0 Z " fill="#F0FBFD" transform="translate(475,516)"/>
<path d="M0 0 C2.31 0.33 4.62 0.66 7 1 C6.25 2.9375 6.25 2.9375 5 5 C3 5.875 3 5.875 1 6 C0.34 5.34 -0.32 4.68 -1 4 C-0.625 1.875 -0.625 1.875 0 0 Z " fill="#294079" transform="translate(639,553)"/>
<path d="M0 0 C3.47928514 3.0443745 5.60846256 5.57238086 7 10 C6.01 10.495 6.01 10.495 5 11 C4.443125 10.0925 3.88625 9.185 3.3125 8.25 C1.1106201 5.15546609 -0.94389725 3.20718532 -4 1 C-2 0 -2 0 0 0 Z " fill="#36497C" transform="translate(509,460)"/>
<path d="M0 0 C0.66 0 1.32 0 2 0 C2.66 0.99 3.32 1.98 4 3 C4.66 3.66 5.32 4.32 6 5 C5.625 7.125 5.625 7.125 5 9 C0.23021583 5.57553957 0.23021583 5.57553957 -0.875 2.8125 C-0.91625 2.214375 -0.9575 1.61625 -1 1 C-0.67 0.67 -0.34 0.34 0 0 Z " fill="#E3EDF6" transform="translate(594,530)"/>
<path d="M0 0 C0.33 0 0.66 0 1 0 C1.1799928 5.21979128 0.97094808 9.07262981 -1 14 C-1.33 14 -1.66 14 -2 14 C-2.05437607 12.41705218 -2.09296271 10.83355744 -2.125 9.25 C-2.14820313 8.36828125 -2.17140625 7.4865625 -2.1953125 6.578125 C-1.99139502 3.8864142 -1.36551721 2.30095026 0 0 Z " fill="#2D3F77" transform="translate(539,480)"/>
<path d="M0 0 C2 1 2 1 2 1 Z M-8 1 C0.57142857 0.71428571 0.57142857 0.71428571 4 3 C3.67 3.33 3.34 3.66 3 4 C1.14227838 3.91015699 -0.71247985 3.75388139 -2.5625 3.5625 C-4.08037109 3.40974609 -4.08037109 3.40974609 -5.62890625 3.25390625 C-6.41136719 3.17011719 -7.19382812 3.08632813 -8 3 C-8 2.34 -8 1.68 -8 1 Z " fill="#3E5189" transform="translate(308,610)"/>
<path d="M0 0 C0.66 0.33 1.32 0.66 2 1 C0.95125002 3.62187494 0.35068687 4.79371361 -2.125 6.25 C-2.74375 6.4975 -3.3625 6.745 -4 7 C-4.33 5.02 -4.66 3.04 -5 1 C-3 0 -3 0 0 0 Z " fill="#223B76" transform="translate(653,545)"/>
<path d="M0 0 C0.66 0 1.32 0 2 0 C2.02696365 1.79158489 2.04637917 3.58328473 2.0625 5.375 C2.07410156 6.37273437 2.08570313 7.37046875 2.09765625 8.3984375 C2 11 2 11 1 13 C0.34 13 -0.32 13 -1 13 C-0.67 8.71 -0.34 4.42 0 0 Z " fill="#445687" transform="translate(515,474)"/>
<path d="M0 0 C0.66 0.99 1.32 1.98 2 3 C0.25 4.5625 0.25 4.5625 -2 6 C-4.25 5.6875 -4.25 5.6875 -6 5 C-5.67 3.68 -5.34 2.36 -5 1 C-3.35 1.33 -1.7 1.66 0 2 C0 1.34 0 0.68 0 0 Z " fill="#ECF4F3" transform="translate(313,463)"/>
<path d="M0 0 C0.99 0.99 1.98 1.98 3 3 C-1.95 4.485 -1.95 4.485 -7 6 C-7.33 5.01 -7.66 4.02 -8 3 C-2.92913386 0.28346457 -2.92913386 0.28346457 0 0 Z " fill="#E6F1F9" transform="translate(327,456)"/>
<path d="M0 0 C1.32 1.65 2.64 3.3 4 5 C3.67 5.66 3.34 6.32 3 7 C2.34 6.67 1.68 6.34 1 6 C0.67 6.66 0.34 7.32 0 8 C-1.65 7.67 -3.3 7.34 -5 7 C-5 6.34 -5 5.68 -5 5 C-3.68 4.67 -2.36 4.34 -1 4 C-0.67 2.68 -0.34 1.36 0 0 Z " fill="#2D4888" transform="translate(537,555)"/>
<path d="M0 0 C2.0625 0.4375 2.0625 0.4375 4 1 C0.25 7.875 0.25 7.875 -2 9 C-1.125 1.125 -1.125 1.125 0 0 Z " fill="#2B457C" transform="translate(418,557)"/>
<path d="M0 0 C0.12375 0.721875 0.2475 1.44375 0.375 2.1875 C0.9904931 4.95721894 1.88444374 7.3970354 3 10 C2.01 10.495 2.01 10.495 1 11 C0.16121545 9.71186658 -0.67086783 8.41936744 -1.5 7.125 C-1.9640625 6.40570312 -2.428125 5.68640625 -2.90625 4.9453125 C-4 3 -4 3 -4 1 C-2 0 -2 0 0 0 Z " fill="#DBE9F5" transform="translate(517,512)"/>
<path d="M0 0 C0.66 0.66 1.32 1.32 2 2 C1.23997083 3.31878578 0.46656347 4.6298684 -0.3125 5.9375 C-0.74175781 6.66839844 -1.17101562 7.39929688 -1.61328125 8.15234375 C-3 10 -3 10 -6 11 C-4.54955729 6.89041233 -2.48889248 3.56741255 0 0 Z " fill="#E4EFF7" transform="translate(284,453)"/>
<path d="M0 0 C4.10958767 1.45044271 7.43258745 3.51110752 11 6 C9.02 6.99 9.02 6.99 7 8 C5.83035398 6.8572081 4.66435444 5.71068285 3.5 4.5625 C2.8503125 3.92441406 2.200625 3.28632812 1.53125 2.62890625 C0 1 0 1 0 0 Z " fill="#37497F" transform="translate(242,580)"/>
<path d="M0 0 C2.97 0.495 2.97 0.495 6 1 C6.33 2.98 6.66 4.96 7 7 C6.01 7.495 6.01 7.495 5 8 C4.16382818 6.8562364 3.33113541 5.70992861 2.5 4.5625 C2.0359375 3.92441406 1.571875 3.28632812 1.09375 2.62890625 C0 1 0 1 0 0 Z " fill="#384D84" transform="translate(570,542)"/>
<path d="M0 0 C0.33 0 0.66 0 1 0 C0.63495936 5.66442374 -0.0554321 10.00703705 -3 15 C-3.6875 13.375 -3.6875 13.375 -4 11 C-3.0520411 8.97481509 -2.04808041 6.97522846 -1 5 C-0.30092586 2.26427415 -0.30092586 2.26427415 0 0 Z " fill="#293E73" transform="translate(432,528)"/>
<path d="M0 0 C1.65 1.65 3.3 3.3 5 5 C4.01 5.66 3.02 6.32 2 7 C1.27034634 9.56282742 1.27034634 9.56282742 1 12 C0.67 12 0.34 12 0 12 C0 8.04 0 4.08 0 0 Z " fill="#E3F5FB" transform="translate(307,507)"/>
<path d="M0 0 C1.5 1.375 1.5 1.375 3 3 C3 5 3 5 1.1875 6.875 C0.465625 7.57625 -0.25625 8.2775 -1 9 C-2.02323436 10.31558703 -3.03126968 11.64377755 -4 13 C-4.66 12.67 -5.32 12.34 -6 12 C-5.38125 11.13375 -4.7625 10.2675 -4.125 9.375 C-2.15345216 6.24371814 -1.01033009 3.53615531 0 0 Z " fill="#D8E2F0" transform="translate(539,488)"/>
<path d="M0 0 C0.33 0 0.66 0 1 0 C1 2.97 1 5.94 1 9 C0.34 9 -0.32 9 -1 9 C-1.33 9.99 -1.66 10.98 -2 12 C-3.12377697 8.69564916 -2.89554742 6.9493138 -1.5625 3.75 C-1.27503906 3.04359375 -0.98757812 2.3371875 -0.69140625 1.609375 C-0.46324219 1.07828125 -0.23507813 0.5471875 0 0 Z " fill="#344781" transform="translate(217,456)"/>
<path d="M0 0 C0.66 0 1.32 0 2 0 C2.66 1.32 3.32 2.64 4 4 C1 6 1 6 -1.6875 5.625 C-2.450625 5.41875 -3.21375 5.2125 -4 5 C-4 4.34 -4 3.68 -4 3 C-3.01 2.67 -2.02 2.34 -1 2 C-0.67 1.34 -0.34 0.68 0 0 Z " fill="#294387" transform="translate(298,434)"/>
<path d="M0 0 C-3.00440021 2.00293347 -4.70993945 2.49271626 -8.1875 3.125 C-9.53908203 3.37636719 -9.53908203 3.37636719 -10.91796875 3.6328125 C-11.60503906 3.75398437 -12.29210937 3.87515625 -13 4 C-11 1 -11 1 -9.3125 0.3125 C-6.19641489 -0.10859258 -3.13969957 -0.06037884 0 0 Z " fill="#32427D" transform="translate(363,607)"/>
<path d="M0 0 C6.48292295 -0.3669579 6.48292295 -0.3669579 8.9375 1.375 C10 3 10 3 10 5 C6.08788267 3.84414715 3.1254959 2.64465038 0 0 Z " fill="#3B4E81" transform="translate(270,601)"/>
<path d="M0 0 C0.33 0 0.66 0 1 0 C1.33 1.98 1.66 3.96 2 6 C-1.75 9 -1.75 9 -4 9 C-3.35499066 5.51694958 -1.95865224 2.93797836 0 0 Z " fill="#E7F1F9" transform="translate(421,559)"/>
<path d="M0 0 C2.125 0.9375 2.125 0.9375 4 2 C4 2.99 4 3.98 4 5 C0.7 4.34 -2.6 3.68 -6 3 C-4 2 -2 1 0 0 Z " fill="#DFEBF4" transform="translate(347,456)"/>
<path d="M0 0 C1.8125 0.1875 1.8125 0.1875 4 1 C6.62334906 4.37287736 7.36372697 6.75651873 7 11 C4.23455278 7.54319097 2.15078722 3.85658398 0 0 Z " fill="#344579" transform="translate(387,453)"/>
<path d="M0 0 C0.66 0 1.32 0 2 0 C4.09350689 3.4019487 4.17942163 6.05272412 4 10 C3.525625 9.505 3.05125 9.01 2.5625 8.5 C1.24076302 6.88457803 1.24076302 6.88457803 0 7 C0 4.69 0 2.38 0 0 Z " fill="#293E74" transform="translate(260,441)"/>
<path d="M0 0 C1.38087404 3.83576122 0.94284862 7.08355188 0 11 C-2.05078125 12.2109375 -2.05078125 12.2109375 -4 13 C-3.52140759 11.39566191 -3.04210442 9.79153584 -2.5625 8.1875 C-2.29566406 7.29417969 -2.02882813 6.40085937 -1.75390625 5.48046875 C-1.19612127 3.64526945 -0.60655425 1.81966274 0 0 Z " fill="#E0EBF4" transform="translate(431,537)"/>
<path d="M0 0 C0.66 0.66 1.32 1.32 2 2 C-1.63 3.32 -5.26 4.64 -9 6 C-9 5.01 -9 4.02 -9 3 C-8.01 3 -7.02 3 -6 3 C-6 2.34 -6 1.68 -6 1 C-4.7934375 1.0309375 -4.7934375 1.0309375 -3.5625 1.0625 C-1.06645115 1.29633621 -1.06645115 1.29633621 0 0 Z " fill="#2E497D" transform="translate(521,508)"/>
<path d="M0 0 C2.475 0.99 2.475 0.99 5 2 C2.64722731 4.72426311 0.37503669 5.8141763 -3 7 C-1.125 2.25 -1.125 2.25 0 0 Z " fill="#E4EEF7" transform="translate(506,489)"/>
<path d="M0 0 C0.66 1.32 1.32 2.64 2 4 C0.68 5.32 -0.64 6.64 -2 8 C-2.66 7.67 -3.32 7.34 -4 7 C-3.67 6.34 -3.34 5.68 -3 5 C-3 4.01 -3 3.02 -3 2 C-2.01 1.34 -1.02 0.68 0 0 Z " fill="#324583" transform="translate(319,462)"/>
<path d="M0 0 C2.2477975 2.05233685 3.0022242 3.00667261 4 6 C3.01 6.66 2.02 7.32 1 8 C-2 3.25 -2 3.25 -2 1 C-1.34 0.67 -0.68 0.34 0 0 Z " fill="#E5F2F8" transform="translate(421,435)"/>
<path d="M0 0 C2.91517292 1.07401108 4.77810176 1.77810176 7 4 C6.67 4.66 6.34 5.32 6 6 C0.25 4.25 0.25 4.25 -2 2 C-1.34 2 -0.68 2 0 2 C0 1.34 0 0.68 0 0 Z " fill="#E0EAF5" transform="translate(372,393)"/>
<path d="M0 0 C3.465 1.98 3.465 1.98 7 4 C4.64561267 5.42944945 3.51967567 6.08661261 0.75 5.625 C0.1725 5.41875 -0.405 5.2125 -1 5 C-0.67 3.35 -0.34 1.7 0 0 Z " fill="#E9F2F8" transform="translate(578,553)"/>
<path d="M0 0 C0.99 0 1.98 0 3 0 C4.06775224 1.96466413 5.06553465 3.96855359 6 6 C5.67 6.66 5.34 7.32 5 8 C4.01 7.67 3.02 7.34 2 7 C0.8125 3.4375 0.8125 3.4375 0 0 Z " fill="#2D3F7D" transform="translate(394,465)"/>
<path d="M0 0 C0.66 0.33 1.32 0.66 2 1 C-1.92944785 6.42638037 -1.92944785 6.42638037 -4 8 C-5.32 7.67 -6.64 7.34 -8 7 C-5.36 4.69 -2.72 2.38 0 0 Z " fill="#DCE6F5" transform="translate(400,584)"/>
<path d="M0 0 C0.66 0 1.32 0 2 0 C2 0.66 2 1.32 2 2 C2.99 2.33 3.98 2.66 5 3 C5 4.98 5 6.96 5 9 C0.57142857 3.85714286 0.57142857 3.85714286 0 0 Z " fill="#394C7F" transform="translate(508,553)"/>
<path d="M0 0 C0.33 0.99 0.66 1.98 1 3 C-1.64 4.98 -4.28 6.96 -7 9 C-5.71284823 3.85139294 -4.09341999 3.13538553 0 0 Z " fill="#DFEBF7" transform="translate(293,436)"/>
<path d="M0 0 C0.33 0 0.66 0 1 0 C0.25 6.75 0.25 6.75 -2 9 C-2.66 8.67 -3.32 8.34 -4 8 C-2.87548273 5.0280615 -1.77706209 2.66559313 0 0 Z " fill="#394C7D" transform="translate(229,434)"/>
<path d="M0 0 C0.99 0.33 1.98 0.66 3 1 C1.35 2.65 -0.3 4.3 -2 6 C-4 5 -4 5 -5 3 C-2.6875 1.4375 -2.6875 1.4375 0 0 Z " fill="#2E4681" transform="translate(268,399)"/>
<path d="M0 0 C0.99 0.33 1.98 0.66 3 1 C-1.39453125 5.00390625 -1.39453125 5.00390625 -3 6 C-3.99 5.67 -4.98 5.34 -6 5 C-4.06745228 2.9754262 -2.36841312 1.57894208 0 0 Z " fill="#E4EFFA" transform="translate(388,594)"/>
<path d="M0 0 C1.98 0 3.96 0 6 0 C6.33 0.99 6.66 1.98 7 3 C3.7 3.33 0.4 3.66 -3 4 C-2.01 3.67 -1.02 3.34 0 3 C0 2.01 0 1.02 0 0 Z " fill="#1C3979" transform="translate(345,553)"/>
<path d="M0 0 C0.99 0.33 1.98 0.66 3 1 C1.68 3.31 0.36 5.62 -1 8 C-1.33 8 -1.66 8 -2 8 C-2.125 5.125 -2.125 5.125 -2 2 C-1.34 1.34 -0.68 0.68 0 0 Z " fill="#314579" transform="translate(424,549)"/>
<path d="M0 0 C2.50298434 2.93828597 3.46930939 5.17902761 4 9 C3.01 8.67 2.02 8.34 1 8 C0.6278958 6.67696283 0.29369827 5.34262065 0 4 C-0.66 3.67 -1.32 3.34 -2 3 C-1 1 -1 1 0 0 Z " fill="#415385" transform="translate(427,452)"/>
<path d="M0 0 C1 3 1 3 -0.4375 6.1875 C-1.2109375 7.5796875 -1.2109375 7.5796875 -2 9 C-2.66 8.67 -3.32 8.34 -4 8 C-4 6.02 -4 4.04 -4 2 C-2.68 1.34 -1.36 0.68 0 0 Z " fill="#E4EFF7" transform="translate(224,439)"/>
<path d="M0 0 C0.99 0.33 1.98 0.66 3 1 C-0.465 3.97 -0.465 3.97 -4 7 C-3.6875 4.625 -3.6875 4.625 -3 2 C-2.01 1.34 -1.02 0.68 0 0 Z " fill="#E4EFFA" transform="translate(242,416)"/>
<path d="M0 0 C0.66 0.33 1.32 0.66 2 1 C-0.46153846 4.81538462 -0.46153846 4.81538462 -3.1875 5.75 C-3.785625 5.8325 -4.38375 5.915 -5 6 C-5.33 5.01 -5.66 4.02 -6 3 C-4.03533587 1.93224776 -2.03144641 0.93446535 0 0 Z " fill="#E3ECF6" transform="translate(380,599)"/>
<path d="M0 0 C0.66 0 1.32 0 2 0 C2 1.65 2 3.3 2 5 C0.68 5.33 -0.64 5.66 -2 6 C-1.125 1.125 -1.125 1.125 0 0 Z " fill="#213F7B" transform="translate(535,554)"/>
<path d="M0 0 C0.66 0.99 1.32 1.98 2 3 C-1.21451269 4.60725635 -4.43612536 4.05748185 -8 4 C-5.53721199 1.53721199 -3.29323018 1.00228745 0 0 Z " fill="#E4F0F7" transform="translate(624,538)"/>
<path d="M0 0 C3.465 1.98 3.465 1.98 7 4 C6.34 4.66 5.68 5.32 5 6 C2.375 5.625 2.375 5.625 0 5 C0 3.35 0 1.7 0 0 Z " fill="#384E80" transform="translate(596,536)"/>
<path d="M0 0 C0.66 0.66 1.32 1.32 2 2 C1.625 4.125 1.625 4.125 1 6 C0.01 6 -0.98 6 -2 6 C-2 3 -2 3 0 0 Z " fill="#445382" transform="translate(285,446)"/>
<path d="M0 0 C3.0916909 2.52956528 3.90931332 5.22454612 5 9 C4.01 8.67 3.02 8.34 2 8 C0.3125 4.4375 0.3125 4.4375 -1 1 C-0.67 0.67 -0.34 0.34 0 0 Z " fill="#374C7E" transform="translate(422,443)"/>
<path d="M0 0 C1.32 0.66 2.64 1.32 4 2 C3.01 2.66 2.02 3.32 1 4 C-0.19232613 6.05003955 -0.19232613 6.05003955 -1 8 C-1.66 6.68 -2.32 5.36 -3 4 C-2.01 3.67 -1.02 3.34 0 3 C0 2.01 0 1.02 0 0 Z " fill="#334E80" transform="translate(260,433)"/>
<path d="M0 0 C2.64 0 5.28 0 8 0 C6.75 1.5 6.75 1.5 5 3 C3.68 3 2.36 3 1 3 C0.67 2.01 0.34 1.02 0 0 Z " fill="#2C4072" transform="translate(363,603)"/>
<path d="M0 0 C2.9375 0.8125 2.9375 0.8125 6 2 C6.33 2.99 6.66 3.98 7 5 C1.25 3.25 1.25 3.25 -1 1 C-0.67 0.67 -0.34 0.34 0 0 Z " fill="#E3EDF8" transform="translate(312,547)"/>
<path d="M0 0 C0.66 0.33 1.32 0.66 2 1 C1.67 2.32 1.34 3.64 1 5 C-0.32 5.33 -1.64 5.66 -3 6 C-3.33 5.01 -3.66 4.02 -4 3 C-2.68 2.01 -1.36 1.02 0 0 Z " fill="#394D81" transform="translate(632,536)"/>
<path d="M0 0 C2.99324263 1.0975223 3.84610901 1.67682892 5.25 4.625 C5.4975 5.40875 5.745 6.1925 6 7 C5.01 7.33 4.02 7.66 3 8 C2.67 7.01 2.34 6.02 2 5 C1.34 4.67 0.68 4.34 0 4 C0 2.68 0 1.36 0 0 Z " fill="#394D84" transform="translate(521,531)"/>
<path d="M0 0 C1.65 1.65 3.3 3.3 5 5 C4.01 5.495 4.01 5.495 3 6 C2.67 6.99 2.34 7.98 2 9 C0.93347808 6.69631264 -0.06421005 4.35981813 -1 2 C-0.67 1.34 -0.34 0.68 0 0 Z " fill="#394D81" transform="translate(495,527)"/>
<path d="M0 0 C1.65 1.65 3.3 3.3 5 5 C1 5 1 5 -0.75 3.5 C-1.1625 3.005 -1.575 2.51 -2 2 C-1.34 1.34 -0.68 0.68 0 0 Z " fill="#384D81" transform="translate(316,512)"/>
<path d="M0 0 C0.66 1.32 1.32 2.64 2 4 C0.69593116 6.01920337 -0.63823419 8.01924973 -2 10 C-2.33 10 -2.66 10 -3 10 C-3 8.35 -3 6.7 -3 5 C-2.34 4.67 -1.68 4.34 -1 4 C-0.34786708 1.97536745 -0.34786708 1.97536745 0 0 Z " fill="#35477D" transform="translate(535,492)"/>
<path d="M0 0 C2.0625 0.4375 2.0625 0.4375 4 1 C3.01 1.66 2.02 2.32 1 3 C1.66 3.33 2.32 3.66 3 4 C1.02 4.33 -0.96 4.66 -3 5 C-1.125 1.125 -1.125 1.125 0 0 Z " fill="#233773" transform="translate(314,466)"/>
<path d="M0 0 C0.99 0.66 1.98 1.32 3 2 C1.35 4.31 -0.3 6.62 -2 9 C-3 5 -3 5 -2 3 C-1.34 3 -0.68 3 0 3 C0 2.01 0 1.02 0 0 Z " fill="#E8F2FC" transform="translate(281,447)"/>
<path d="M0 0 C0.33 0.66 0.66 1.32 1 2 C0.22265625 3.7265625 0.22265625 3.7265625 -0.9375 5.625 C-1.618125 6.73875 -2.29875 7.8525 -3 9 C-3.99 8.34 -4.98 7.68 -6 7 C-4.02 4.69 -2.04 2.38 0 0 Z " fill="#D9E4F6" transform="translate(415,568)"/>
<path d="M0 0 C0.66 0 1.32 0 2 0 C2 0.66 2 1.32 2 2 C2.99 2 3.98 2 5 2 C5 3.65 5 5.3 5 7 C4.67 6.34 4.34 5.68 4 5 C3.01 4.67 2.02 4.34 1 4 C0.3125 1.9375 0.3125 1.9375 0 0 Z " fill="#31447A" transform="translate(568,537)"/>
<path d="M0 0 C2.2477975 2.05233685 3.0022242 3.00667261 4 6 C3.01 6.495 3.01 6.495 2 7 C2 6.34 2 5.68 2 5 C1.01 5 0.02 5 -1 5 C-0.67 3.35 -0.34 1.7 0 0 Z " fill="#344A85" transform="translate(516,520)"/>
<path d="M0 0 C0.66 1.32 1.32 2.64 2 4 C2.66 3.34 3.32 2.68 4 2 C4.33 3.65 4.66 5.3 5 7 C3.35 6.67 1.7 6.34 0 6 C0 4.02 0 2.04 0 0 Z " fill="#223F92" transform="translate(530,456)"/>
<path d="M0 0 C0.598125 0.309375 1.19625 0.61875 1.8125 0.9375 C4.08956772 2.10209704 4.08956772 2.10209704 7 3 C7.33 3.99 7.66 4.98 8 6 C5 6 5 6 3.61328125 4.6875 C2.40885417 3.125 1.20442708 1.5625 0 0 Z " fill="#425183" transform="translate(376,441)"/>
<path d="M0 0 C2.31 1.98 4.62 3.96 7 6 C6.34 6.66 5.68 7.32 5 8 C0 2.25 0 2.25 0 0 Z " fill="#455487" transform="translate(401,416)"/>
</svg>
